<svg xmlns="http://www.w3.org/2000/svg" viewBox="0 0 24 24" width="24" height="24" fill="currentColor">
  <path d="M12 2C6.5 2 3 5.7 3 9.8c0 2.5 1.4 4.8 3.6 5.7.3.1.5 0 .6-.3.1-.2.2-.9.3-1.2.1-.3 0-.4-.2-.6-.6-.7-1-1.6-1-2.8 0-3.6 2.7-6.8 7.2-6.8 3.9 0 6.6 2.4 6.6 5.9 0 4.1-2.1 6.9-4.9 6.9-1.5 0-2.6-1.2-2.2-2.7.4-1.8 1.1-3.7 1.1-5 0-1.2-.6-2.1-2-2.1-1.6 0-2.9 1.7-2.9 3.9 0 1.4.5 2.4.5 2.4s-1.6 6.9-1.9 8.2c-.3 1.3 0 3 .1 3.2.1.2.3.1.4 0 .2-.2 2.1-2.6 2.8-4.7.2-.6 1-3.7 1-3.7.5.9 1.9 1.7 3.5 1.7 4.6 0 7.9-4.2 7.9-9.3C21 5.7 17.2 2 12 2z"></path>
</svg>